<svg width="90" height="90" viewBox="0 0 90 90" fill="none" xmlns="http://www.w3.org/2000/svg">
<path d="M82.5 43.125V54.75C82.5 63.1508 82.5 67.3512 80.8651 70.5599C79.427 73.3823 77.1323 75.677 74.3099 77.1151C71.1012 78.75 66.9008 78.75 58.5 78.75H31.5C23.0992 78.75 18.8988 78.75 15.6901 77.1151C12.8677 75.677 10.573 73.3823 9.1349 70.5599C7.5 67.3512 7.5 63.1508 7.5 54.75V35.25C7.5 26.8492 7.5 22.6488 9.1349 19.4401C10.573 16.6177 12.8677 14.323 15.6901 12.8849C18.8988 11.25 23.0992 11.25 31.5 11.25H46.875M71.25 30V7.5M60 18.75H82.5M60 45C60 53.2843 53.2843 60 45 60C36.7157 60 30 53.2843 30 45C30 36.7157 36.7157 30 45 30C53.2843 30 60 36.7157 60 45Z" stroke="#333333" stroke-width="7.5" stroke-linecap="round" stroke-linejoin="round"/>
</svg>
