<svg width="90" height="90" viewBox="0 0 90 90" fill="none" xmlns="http://www.w3.org/2000/svg">
<path d="M18.75 18.75H20.3207C20.821 18.75 21.0712 18.75 21.2977 18.7363C24.1898 18.5611 26.7223 16.7358 27.803 14.0475C27.8877 13.837 27.9668 13.5996 28.125 13.125C28.2832 12.6504 28.3623 12.413 28.447 12.2025C29.5277 9.51421 32.0602 7.68887 34.9523 7.51372C35.1788 7.5 35.429 7.5 35.9293 7.5H54.0707C54.571 7.5 54.8212 7.5 55.0477 7.51372C57.9398 7.68887 60.4723 9.51421 61.553 12.2025C61.6377 12.413 61.7168 12.6504 61.875 13.125C62.0332 13.5996 62.1123 13.837 62.197 14.0475C63.2777 16.7358 65.8102 18.5611 68.7023 18.7363C68.9288 18.75 69.1956 18.75 69.7291 18.75C71.1137 18.75 71.806 18.75 72.3592 18.8048C77.6952 19.3335 81.9165 23.5548 82.4452 28.8908C82.5 29.444 82.5 30.1009 82.5 31.4146V67.5C82.5 71.5684 80.3404 75.1325 77.1049 77.1083M56.4903 56.5178C58.6807 53.9104 60 50.5468 60 46.875C60 38.5907 53.2843 31.875 45 31.875C41.3309 31.875 37.9695 33.1924 35.3629 35.3799M82.5 82.5L7.5 7.5M7.5 28.125V60.75C7.5 67.0506 7.5 70.2009 8.72618 72.6074C9.80475 74.7242 11.5258 76.4452 13.6426 77.5238C16.0491 78.75 19.1994 78.75 25.5 78.75H58.125M45 61.875C36.7157 61.875 30 55.1593 30 46.875" stroke="#4285F4" stroke-width="7.5" stroke-linecap="round" stroke-linejoin="round"/>
</svg>
