<svg width="180" height="52" viewBox="0 0 180 52" fill="none" xmlns="http://www.w3.org/2000/svg">
<path d="M50.6813 26.5981C50.6813 30.7512 47.4323 33.8115 43.4451 33.8115C39.4579 33.8115 36.209 30.7512 36.209 26.5981C36.209 22.4158 39.4579 19.3848 43.4451 19.3848C47.4323 19.3848 50.6813 22.4158 50.6813 26.5981ZM47.5136 26.5981C47.5136 24.0029 45.6306 22.2272 43.4451 22.2272C41.2597 22.2272 39.3766 24.0029 39.3766 26.5981C39.3766 29.1674 41.2597 30.9691 43.4451 30.9691C45.6306 30.9691 47.5136 29.1641 47.5136 26.5981Z" fill="#292645"/>
<path d="M66.2916 26.5981C66.2916 30.7512 63.0427 33.8115 59.0555 33.8115C55.0683 33.8115 51.8193 30.7512 51.8193 26.5981C51.8193 22.4191 55.0683 19.3848 59.0555 19.3848C63.0427 19.3848 66.2916 22.4158 66.2916 26.5981ZM63.124 26.5981C63.124 24.0029 61.241 22.2272 59.0555 22.2272C56.87 22.2272 54.987 24.0029 54.987 26.5981C54.987 29.1674 56.87 30.9691 59.0555 30.9691C61.241 30.9691 63.124 29.1641 63.124 26.5981Z" fill="#292645"/>
<path d="M81.2512 19.8206V32.7708C81.2512 38.0979 78.1096 40.2736 74.3956 40.2736C70.8995 40.2736 68.7953 37.9353 68.0017 36.023L70.7596 34.875C71.2507 36.049 72.454 37.4345 74.3923 37.4345C76.7697 37.4345 78.2429 35.9677 78.2429 33.2066V32.1692H78.1323C77.4234 33.044 76.0574 33.8083 74.3338 33.8083C70.7271 33.8083 67.4229 30.6666 67.4229 26.6242C67.4229 22.5524 70.7271 19.3848 74.3338 19.3848C76.0542 19.3848 77.4201 20.149 78.1323 20.9979H78.2429V19.8238H81.2512V19.8206ZM78.4673 26.6242C78.4673 24.0842 76.7729 22.2272 74.6167 22.2272C72.4312 22.2272 70.6003 24.0842 70.6003 26.6242C70.6003 29.1381 72.4312 30.9691 74.6167 30.9691C76.7729 30.9691 78.4673 29.1381 78.4673 26.6242Z" fill="#292645"/>
<path d="M86.2117 12.2305V33.3698H83.1221V12.2305H86.2117Z" fill="#292645"/>
<path d="M98.2505 28.9716L100.709 30.6107C99.9156 31.7847 98.0033 33.8076 94.6991 33.8076C90.6013 33.8076 87.541 30.64 87.541 26.5942C87.541 22.3046 90.6274 19.3809 94.3446 19.3809C98.0879 19.3809 99.9189 22.3599 100.517 23.9697L100.846 24.7893L91.203 28.783C91.9412 30.2302 93.0893 30.9684 94.6991 30.9684C96.3122 30.9684 97.431 30.1749 98.2505 28.9716ZM90.6826 26.3763L97.1285 23.6998C96.774 22.7989 95.7073 22.1712 94.4519 22.1712C92.8421 22.1712 90.6013 23.5925 90.6826 26.3763Z" fill="#292645"/>
<path d="M24.5142 24.7208V21.6604H34.827C34.9278 22.1938 34.9798 22.8247 34.9798 23.5077C34.9798 25.8037 34.3521 28.6429 32.3293 30.6658C30.3617 32.7147 27.8477 33.8074 24.5175 33.8074C18.3448 33.8074 13.1543 28.7795 13.1543 22.6068C13.1543 16.4342 18.3448 11.4062 24.5175 11.4062C27.9323 11.4062 30.3649 12.7462 32.1927 14.4926L30.0332 16.652C28.7226 15.4227 26.9469 14.4666 24.5142 14.4666C20.0067 14.4666 16.4813 18.0993 16.4813 22.6068C16.4813 27.1144 20.0067 30.7471 24.5142 30.7471C27.438 30.7471 29.1031 29.573 30.1698 28.5063C31.0349 27.6412 31.604 26.4054 31.8284 24.7175L24.5142 24.7208Z" fill="#292645"/>
<path d="M117.766 33.416C116.396 33.416 115.122 33.1733 113.944 32.688C112.782 32.1853 111.76 31.5007 110.876 30.634C110.009 29.75 109.333 28.7187 108.848 27.54C108.362 26.344 108.12 25.0613 108.12 23.692C108.12 22.3053 108.362 21.0227 108.848 19.844C109.333 18.6653 110.009 17.6427 110.876 16.776C111.76 15.892 112.782 15.2073 113.944 14.722C115.122 14.2193 116.396 13.968 117.766 13.968C118.719 13.968 119.603 14.0893 120.418 14.332C121.25 14.5747 122.012 14.9213 122.706 15.372C123.399 15.8227 124.023 16.3687 124.578 17.01L122.992 18.544C122.524 17.972 122.021 17.504 121.484 17.14C120.964 16.776 120.392 16.5073 119.768 16.334C119.161 16.1607 118.494 16.074 117.766 16.074C116.431 16.074 115.2 16.386 114.074 17.01C112.947 17.634 112.046 18.518 111.37 19.662C110.694 20.7887 110.356 22.132 110.356 23.692C110.356 25.2347 110.694 26.578 111.37 27.722C112.046 28.866 112.947 29.75 114.074 30.374C115.2 30.998 116.431 31.31 117.766 31.31C118.979 31.31 120.054 31.0587 120.99 30.556C121.943 30.0533 122.784 29.3773 123.512 28.528L125.124 30.088C124.586 30.7293 123.936 31.3013 123.174 31.804C122.428 32.3067 121.596 32.7053 120.678 33C119.776 33.2773 118.806 33.416 117.766 33.416ZM127.212 33V14.384H129.422V33H127.212ZM138.236 33.416C136.901 33.416 135.722 33.104 134.7 32.48C133.677 31.856 132.871 31.0153 132.282 29.958C131.71 28.8833 131.424 27.6873 131.424 26.37C131.424 25.0527 131.71 23.8653 132.282 22.808C132.871 21.7333 133.677 20.884 134.7 20.26C135.722 19.636 136.901 19.324 138.236 19.324C139.57 19.324 140.749 19.6447 141.772 20.286C142.794 20.91 143.592 21.7593 144.164 22.834C144.753 23.8913 145.048 25.07 145.048 26.37C145.048 27.6873 144.753 28.8833 144.164 29.958C143.592 31.0153 142.794 31.856 141.772 32.48C140.749 33.104 139.57 33.416 138.236 33.416ZM138.236 31.414C139.033 31.414 139.778 31.2147 140.472 30.816C141.182 30.4173 141.754 29.8453 142.188 29.1C142.621 28.3373 142.838 27.4273 142.838 26.37C142.838 25.3127 142.621 24.4113 142.188 23.666C141.754 22.9033 141.182 22.3227 140.472 21.924C139.778 21.5253 139.033 21.326 138.236 21.326C137.438 21.326 136.684 21.5253 135.974 21.924C135.263 22.3227 134.691 22.9033 134.258 23.666C133.824 24.4113 133.608 25.3127 133.608 26.37C133.608 27.4273 133.824 28.3373 134.258 29.1C134.691 29.8453 135.263 30.4173 135.974 30.816C136.684 31.2147 137.438 31.414 138.236 31.414ZM151.853 33.416C150.224 33.416 148.993 32.9393 148.161 31.986C147.347 31.0327 146.939 29.7327 146.939 28.086V19.74H149.149V27.748C149.149 29.0653 149.453 30.01 150.059 30.582C150.666 31.1367 151.42 31.414 152.321 31.414C153.101 31.414 153.777 31.2147 154.349 30.816C154.921 30.4 155.363 29.8713 155.675 29.23C155.987 28.5887 156.143 27.9213 156.143 27.228V19.74H158.353V33H156.247V31.076H156.143C155.918 31.492 155.58 31.882 155.129 32.246C154.696 32.5927 154.193 32.87 153.621 33.078C153.067 33.3033 152.477 33.416 151.853 33.416ZM166.689 33.416C165.493 33.416 164.409 33.1127 163.439 32.506C162.485 31.8993 161.731 31.0673 161.177 30.01C160.622 28.9527 160.345 27.7393 160.345 26.37C160.345 25.0007 160.622 23.7873 161.177 22.73C161.731 21.6727 162.485 20.8407 163.439 20.234C164.409 19.6273 165.493 19.324 166.689 19.324C167.399 19.324 168.049 19.4367 168.639 19.662C169.228 19.8873 169.739 20.182 170.173 20.546C170.623 20.91 170.97 21.3 171.213 21.716H171.317L171.213 19.87V14.384H173.423V33H171.317V31.05H171.213C170.97 31.4487 170.623 31.83 170.173 32.194C169.739 32.558 169.228 32.8527 168.639 33.078C168.049 33.3033 167.399 33.416 166.689 33.416ZM166.923 31.414C167.685 31.414 168.396 31.2147 169.055 30.816C169.731 30.4 170.277 29.8193 170.693 29.074C171.109 28.3113 171.317 27.41 171.317 26.37C171.317 25.33 171.109 24.4373 170.693 23.692C170.277 22.9293 169.731 22.3487 169.055 21.95C168.396 21.534 167.685 21.326 166.923 21.326C166.16 21.326 165.441 21.534 164.765 21.95C164.106 22.3487 163.569 22.9293 163.153 23.692C162.737 24.4373 162.529 25.33 162.529 26.37C162.529 27.3927 162.737 28.2853 163.153 29.048C163.569 29.8107 164.106 30.4 164.765 30.816C165.441 31.2147 166.16 31.414 166.923 31.414Z" fill="#565371"/>
</svg>
